<mxfile host="app.diagrams.net" modified="2021-01-21T09:00:30.390Z" agent="5.0 (Macintosh; Intel Mac OS X 10_15_7) AppleWebKit/537.36 (KHTML, like Gecko) Chrome/87.0.4280.88 Safari/537.36" etag="iTA2FVhVWRv-un3wo-Gj" version="14.2.4" type="github">
  <diagram id="yZ-5awFDFZwI3RNw8QD1" name="Page-1">
    <mxGraphModel dx="1342" dy="639" grid="1" gridSize="10" guides="1" tooltips="1" connect="1" arrows="1" fold="1" page="1" pageScale="1" pageWidth="827" pageHeight="1169" math="0" shadow="0">
      <root>
        <mxCell id="0" />
        <mxCell id="1" parent="0" />
        <mxCell id="lFQKLQK3sEn3rDhJFm7_-2" value="" style="ellipse;whiteSpace=wrap;html=1;strokeWidth=2;fillWeight=2;hachureGap=8;fillColor=#990000;fillStyle=dots;sketch=1;" parent="1" vertex="1">
          <mxGeometry x="260" y="482.75" width="120" height="60" as="geometry" />
        </mxCell>
        <mxCell id="lFQKLQK3sEn3rDhJFm7_-8" value="主站业务" style="html=1;whiteSpace=wrap;container=1;recursiveResize=0;collapsible=0;sketch=1;" parent="1" vertex="1">
          <mxGeometry x="220" y="502.75" width="60" height="20" as="geometry" />
        </mxCell>
        <mxCell id="lFQKLQK3sEn3rDhJFm7_-20" value="&lt;br&gt;&lt;br&gt;后端Leader" style="shape=actor;whiteSpace=wrap;html=1;sketch=1;" parent="1" vertex="1">
          <mxGeometry x="290" y="504.75" width="50" height="59" as="geometry" />
        </mxCell>
        <mxCell id="lFQKLQK3sEn3rDhJFm7_-30" value="&lt;br&gt;&lt;br&gt;前端Leader" style="shape=actor;whiteSpace=wrap;html=1;sketch=1;" parent="1" vertex="1">
          <mxGeometry x="336.65999999999997" y="522.75" width="50" height="59" as="geometry" />
        </mxCell>
        <mxCell id="lFQKLQK3sEn3rDhJFm7_-31" value="&lt;br&gt;&lt;br&gt;客户端Leader" style="shape=actor;whiteSpace=wrap;html=1;sketch=1;" parent="1" vertex="1">
          <mxGeometry x="250" y="532.75" width="50" height="59" as="geometry" />
        </mxCell>
        <mxCell id="lFQKLQK3sEn3rDhJFm7_-35" value="" style="shape=curlyBracket;whiteSpace=wrap;html=1;rounded=1;sketch=1;rotation=90;" parent="1" vertex="1">
          <mxGeometry x="446.25" y="260" width="27.5" height="397.5" as="geometry" />
        </mxCell>
        <mxCell id="lFQKLQK3sEn3rDhJFm7_-45" value="真● 矩阵式高效能团队" style="swimlane;sketch=1;" parent="1" vertex="1">
          <mxGeometry x="130" y="270" width="1000" height="720" as="geometry" />
        </mxCell>
        <mxCell id="lFQKLQK3sEn3rDhJFm7_-1" value="" style="rounded=1;whiteSpace=wrap;html=1;strokeWidth=2;fillWeight=4;hachureGap=8;hachureAngle=45;fillColor=#1ba1e2;sketch=1;" parent="lFQKLQK3sEn3rDhJFm7_-45" vertex="1">
          <mxGeometry x="112.49" y="434.75" width="410" height="46" as="geometry" />
        </mxCell>
        <mxCell id="lFQKLQK3sEn3rDhJFm7_-5" value="" style="html=1;shape=mxgraph.flowchart.annotation_2;align=left;labelPosition=right;sketch=1;rotation=-180;" parent="lFQKLQK3sEn3rDhJFm7_-45" vertex="1">
          <mxGeometry x="526.24" y="420.75" width="60" height="170" as="geometry" />
        </mxCell>
        <mxCell id="lFQKLQK3sEn3rDhJFm7_-15" value="" style="shape=curlyBracket;whiteSpace=wrap;html=1;rounded=1;sketch=1;rotation=-90;" parent="lFQKLQK3sEn3rDhJFm7_-45" vertex="1">
          <mxGeometry x="304.12" y="340.75" width="31.25" height="417" as="geometry" />
        </mxCell>
        <mxCell id="lFQKLQK3sEn3rDhJFm7_-18" value="基础平台" style="html=1;whiteSpace=wrap;aspect=fixed;shape=isoRectangle;sketch=1;" parent="lFQKLQK3sEn3rDhJFm7_-45" vertex="1">
          <mxGeometry x="287.49999999999994" y="565.74" width="66.67" height="40" as="geometry" />
        </mxCell>
        <mxCell id="lFQKLQK3sEn3rDhJFm7_-22" value="后基础架构Leader" style="shape=umlActor;verticalLabelPosition=bottom;verticalAlign=top;html=1;outlineConnect=0;sketch=1;" parent="lFQKLQK3sEn3rDhJFm7_-45" vertex="1">
          <mxGeometry x="375.83" y="480.75" width="22.5" height="36.25" as="geometry" />
        </mxCell>
        <mxCell id="lFQKLQK3sEn3rDhJFm7_-26" value="前基础架构Leader" style="shape=umlActor;verticalLabelPosition=bottom;verticalAlign=top;html=1;outlineConnect=0;sketch=1;" parent="lFQKLQK3sEn3rDhJFm7_-45" vertex="1">
          <mxGeometry x="463.99" y="464.75" width="22.5" height="36.25" as="geometry" />
        </mxCell>
        <mxCell id="lFQKLQK3sEn3rDhJFm7_-27" value="客户端础架构Leader" style="shape=umlActor;verticalLabelPosition=bottom;verticalAlign=top;html=1;outlineConnect=0;sketch=1;" parent="lFQKLQK3sEn3rDhJFm7_-45" vertex="1">
          <mxGeometry x="156.24" y="448.5" width="22.5" height="36.25" as="geometry" />
        </mxCell>
        <mxCell id="lFQKLQK3sEn3rDhJFm7_-28" value="测开基础架构Leader" style="shape=umlActor;verticalLabelPosition=bottom;verticalAlign=top;html=1;outlineConnect=0;sketch=1;" parent="lFQKLQK3sEn3rDhJFm7_-45" vertex="1">
          <mxGeometry x="268.62" y="464.75" width="22.5" height="36.25" as="geometry" />
        </mxCell>
        <mxCell id="lFQKLQK3sEn3rDhJFm7_-37" value="各职能端需要统一的基础组件、架构方案由此决策或实现" style="shape=ext;double=1;rounded=0;whiteSpace=wrap;html=1;sketch=1;" parent="lFQKLQK3sEn3rDhJFm7_-45" vertex="1">
          <mxGeometry x="587.49" y="488.19" width="323.34" height="35.12" as="geometry" />
        </mxCell>
        <mxCell id="lFQKLQK3sEn3rDhJFm7_-46" value="" style="ellipse;whiteSpace=wrap;html=1;strokeWidth=2;fillWeight=2;hachureGap=8;fillColor=#990000;fillStyle=dots;sketch=1;" parent="lFQKLQK3sEn3rDhJFm7_-45" vertex="1">
          <mxGeometry x="263.34000000000003" y="245.75" width="120" height="60" as="geometry" />
        </mxCell>
        <mxCell id="lFQKLQK3sEn3rDhJFm7_-47" value="商城业务" style="html=1;whiteSpace=wrap;container=1;recursiveResize=0;collapsible=0;sketch=1;" parent="lFQKLQK3sEn3rDhJFm7_-45" vertex="1">
          <mxGeometry x="293.34000000000003" y="235.75" width="60" height="20" as="geometry" />
        </mxCell>
        <mxCell id="lFQKLQK3sEn3rDhJFm7_-48" value="&lt;br&gt;&lt;br&gt;后端Leader" style="shape=actor;whiteSpace=wrap;html=1;sketch=1;" parent="lFQKLQK3sEn3rDhJFm7_-45" vertex="1">
          <mxGeometry x="303.34000000000003" y="281.75" width="50" height="59" as="geometry" />
        </mxCell>
        <mxCell id="lFQKLQK3sEn3rDhJFm7_-49" value="&lt;br&gt;&lt;br&gt;前端Leader" style="shape=actor;whiteSpace=wrap;html=1;sketch=1;" parent="lFQKLQK3sEn3rDhJFm7_-45" vertex="1">
          <mxGeometry x="350" y="299.75" width="50" height="59" as="geometry" />
        </mxCell>
        <mxCell id="lFQKLQK3sEn3rDhJFm7_-50" value="&lt;br&gt;&lt;br&gt;客户端Leader" style="shape=actor;whiteSpace=wrap;html=1;sketch=1;" parent="lFQKLQK3sEn3rDhJFm7_-45" vertex="1">
          <mxGeometry x="263.3399999999999" y="309.75" width="50" height="59" as="geometry" />
        </mxCell>
        <mxCell id="lFQKLQK3sEn3rDhJFm7_-38" value="" style="html=1;shape=mxgraph.flowchart.annotation_2;align=left;labelPosition=right;sketch=1;rotation=-180;" parent="lFQKLQK3sEn3rDhJFm7_-45" vertex="1">
          <mxGeometry x="535" y="143.75" width="60" height="212.5" as="geometry" />
        </mxCell>
        <mxCell id="lFQKLQK3sEn3rDhJFm7_-39" value="业务线中的职能部门，各自有独立Leader，互相之间协作但不干涉" style="shape=ext;double=1;rounded=0;whiteSpace=wrap;html=1;sketch=1;" parent="lFQKLQK3sEn3rDhJFm7_-45" vertex="1">
          <mxGeometry x="595" y="229.44" width="373.34" height="39.31" as="geometry" />
        </mxCell>
        <mxCell id="lFQKLQK3sEn3rDhJFm7_-3" value="" style="ellipse;whiteSpace=wrap;html=1;strokeWidth=2;fillWeight=2;hachureGap=8;fillColor=#990000;fillStyle=dots;sketch=1;" parent="lFQKLQK3sEn3rDhJFm7_-45" vertex="1">
          <mxGeometry x="400" y="203.75" width="120" height="60" as="geometry" />
        </mxCell>
        <mxCell id="lFQKLQK3sEn3rDhJFm7_-13" value="直播业务" style="html=1;whiteSpace=wrap;container=1;recursiveResize=0;collapsible=0;sketch=1;" parent="lFQKLQK3sEn3rDhJFm7_-45" vertex="1">
          <mxGeometry x="494" y="223.75" width="60" height="20" as="geometry" />
        </mxCell>
        <mxCell id="lFQKLQK3sEn3rDhJFm7_-32" value="&lt;br&gt;&lt;br&gt;后端Leader" style="shape=actor;whiteSpace=wrap;html=1;sketch=1;" parent="lFQKLQK3sEn3rDhJFm7_-45" vertex="1">
          <mxGeometry x="440" y="239.75" width="50" height="59" as="geometry" />
        </mxCell>
        <mxCell id="lFQKLQK3sEn3rDhJFm7_-33" value="&lt;br&gt;&lt;br&gt;前端Leader" style="shape=actor;whiteSpace=wrap;html=1;sketch=1;" parent="lFQKLQK3sEn3rDhJFm7_-45" vertex="1">
          <mxGeometry x="486.65999999999997" y="257.75" width="50" height="59" as="geometry" />
        </mxCell>
        <mxCell id="lFQKLQK3sEn3rDhJFm7_-34" value="&lt;br&gt;&lt;br&gt;客户端Leader" style="shape=actor;whiteSpace=wrap;html=1;sketch=1;" parent="lFQKLQK3sEn3rDhJFm7_-45" vertex="1">
          <mxGeometry x="399.99999999999994" y="267.75" width="50" height="59" as="geometry" />
        </mxCell>
        <mxCell id="lFQKLQK3sEn3rDhJFm7_-17" value="业务线" style="html=1;whiteSpace=wrap;aspect=fixed;shape=isoRectangle;sketch=1;" parent="lFQKLQK3sEn3rDhJFm7_-45" vertex="1">
          <mxGeometry x="295.01" y="133.75" width="66.67" height="40" as="geometry" />
        </mxCell>
        <mxCell id="lFQKLQK3sEn3rDhJFm7_-66" value="" style="shape=singleArrow;direction=north;whiteSpace=wrap;html=1;sketch=1;arrowWidth=0.4;arrowSize=0.36363636363636365;" parent="lFQKLQK3sEn3rDhJFm7_-45" vertex="1">
          <mxGeometry x="190" y="397.75" width="20" height="23" as="geometry" />
        </mxCell>
        <mxCell id="lFQKLQK3sEn3rDhJFm7_-67" value="" style="shape=singleArrow;direction=north;whiteSpace=wrap;html=1;sketch=1;arrowWidth=0.4;arrowSize=0.36363636363636365;" parent="lFQKLQK3sEn3rDhJFm7_-45" vertex="1">
          <mxGeometry x="440" y="397.75" width="20" height="23" as="geometry" />
        </mxCell>
        <mxCell id="lFQKLQK3sEn3rDhJFm7_-60" value="" style="endArrow=none;dashed=1;html=1;dashPattern=1 3;strokeWidth=2;" parent="1" edge="1">
          <mxGeometry width="50" height="50" relative="1" as="geometry">
            <mxPoint x="242.49" y="680.75" as="sourcePoint" />
            <mxPoint x="652.49" y="680.75" as="targetPoint" />
          </mxGeometry>
        </mxCell>
        <mxCell id="lFQKLQK3sEn3rDhJFm7_-62" value="支撑、支援、支持、支招" style="edgeLabel;html=1;align=center;verticalAlign=middle;resizable=0;points=[];" parent="lFQKLQK3sEn3rDhJFm7_-60" vertex="1" connectable="0">
          <mxGeometry x="-0.1512" y="-2" relative="1" as="geometry">
            <mxPoint x="36.85" y="-3.5" as="offset" />
          </mxGeometry>
        </mxCell>
      </root>
    </mxGraphModel>
  </diagram>
</mxfile>
